# xmcd
#
# Track frame offsets: 
#        150
#        20482
#        36612
#        50862
#        67847
#        86182
#        108295
#        125032
#        149012
#        168517
#        186547
#        205012
#        224157
#        245092
#        269962
#        287250
#        302897
#        319842
#
# Disc length: 4583 seconds
#
# Revision: 2
# Processed by: cddbd v1.5.2PL0 Copyright (c) Steve Scherf et al.
# Submitted via: ExactAudioCopyFreeDBPlugin 1.0
#
DISCID=3211e512
DTITLE=Various Artist - Night Groove Vol.1
DYEAR=1996
DGENRE=Hip-Hop
TTITLE0=Spearhead - Positive
TTITLE1=Guru - No Time To Play
TTITLE2=Miilkbone - Where'z Da' Party At ?
TTITLE3=Jazzkantine - Es ist Jazz
TTITLE4=Galliano - Jus' Reach
TTITLE5=Tone Loc - All Trough The Night
TTITLE6=Brownstone - If You Love Me
TTITLE7=Sade - Cherrish The Day
TTITLE8=Style Council - The Cost Of Loving
TTITLE9=Des'ree - You Gotta Be
TTITLE10=Seal - Newborn Friend
TTITLE11=Matt Bianco - More Than I Can Bear
TTITLE12=Carleen Anderson - True Spirit
TTITLE13=The Chimes - I Still Haven't Found What I'm Looking For
TTITLE14=Grooveminister - Verdient
TTITLE15=Gorgeous - Relax
TTITLE16=7 Signs and Julia Simon - Missing
TTITLE17=Oleta Adams - Rythm Of Life
EXTD=
EXTT0=
EXTT1=
EXTT2=
EXTT3=
EXTT4=
EXTT5=
EXTT6=
EXTT7=
EXTT8=
EXTT9=
EXTT10=
EXTT11=
EXTT12=
EXTT13=
EXTT14=
EXTT15=
EXTT16=
EXTT17=
PLAYORDER=
